#N canvas 178 70 1440 855 12;
#X declare -path ./lib;
#X declare -path ./samples;
#X obj 53 187 bng 15 250 50 0 empty empty empty 17 7 0 10 -262144 -1
-1;
#X obj 43 47 declare -path ./lib;
#X obj 664 22 loadbang;
#X obj 106 396 f;
#X obj 145 396 + 1;
#X obj 53 363 t a b;
#X obj 1025 46 loadsample-1 0;
#X obj 1203 48 loadsample-1 1;
#X obj 1373 47 loadsample-1 2;
#X obj 1548 46 loadsample-1 3;
#X obj 1024 227 loadsample-1 4;
#X obj 1203 229 loadsample-1 5;
#X obj 1372 228 loadsample-1 6;
#X obj 1547 227 loadsample-1 7;
#X obj 1024 400 loadsample-1 8;
#X obj 1201 402 loadsample-1 9;
#X obj 1372 401 loadsample-1 10;
#X obj 1547 400 loadsample-1 11;
#X obj 1023 581 loadsample-1 12;
#X obj 1202 583 loadsample-1 13;
#X obj 1371 582 loadsample-1 14;
#X obj 1546 581 loadsample-1 15;
#X msg 664 59 \; samplerate 44.1 \; pd dsp 1 \;;
#X obj 53 220 t b 0 b;
#X obj 43 76 declare -path ./samples;
#X obj 53 428 pack s f;
#X msg 53 460 \; play-file-\$2 \$1;
#X msg 99 274 reset \, open samples;
#X floatatom 116 347 5 0 0 0 - - -;
#X floatatom 160 348 5 0 0 0 - - -;
#X obj 917 253 dac~;
#X text 41 18 1 Declarar rutas para librerias y samples;
#X text 40 146 2 Cargar samples de la carpeta "samples";
#X obj 53 314 else/dir -ext .wav;
#X connect 0 0 23 0;
#X connect 2 0 22 0;
#X connect 3 0 4 0;
#X connect 3 0 25 1;
#X connect 4 0 3 1;
#X connect 5 0 25 0;
#X connect 5 1 3 0;
#X connect 6 0 30 0;
#X connect 6 0 30 1;
#X connect 23 0 33 0;
#X connect 23 1 3 1;
#X connect 23 2 27 0;
#X connect 25 0 26 0;
#X connect 27 0 33 0;
#X connect 33 0 5 0;
#X connect 33 2 28 0;
#X connect 33 3 29 0;
