#N canvas 0 23 1440 855 10;
#N canvas 0 50 450 250 (subpatch) 0;
#X array sampler-array-\$1 18660 float 2;
#X coords 0 1 18660 -1 145 50 1 0 0;
#X restore 108 163 graph;
#X obj 33 418 soundfiler;
#X floatatom 33 449 10 0 0 0 - - -;
#X text 100 449 tamaño en muestras;
#X text 53 373 cargar muestras a la tabla;
#X obj 34 321 symbol;
#X obj 34 289 r play-file-\$1;
#X msg 33 388 read -resize \$1 sampler-array-\$2;
#X obj 33 352 pack s \$1;
#X text 553 63 REPRODUCCIÓN;
#X obj 632 372 phasor~;
#X obj 669 502 +~ 1;
#X obj 697 432 - 3;
#X obj 669 463 *~;
#X text 697 460 rango de 1 a tamaño-2, f 12;
#X obj 849 277 f;
#X obj 876 243 r samplerate;
#X obj 822 309 *;
#X floatatom 822 335 10 0 0 0 - - -;
#X floatatom 682 311 10 0 0 0 - - -;
#X obj 682 286 expr 1/($f1/1000);
#X obj 632 344 *;
#X obj 573 313 spigot;
#X obj 670 544 tabread4~ sampler-array-\$1;
#X obj 822 243 t f b;
#X obj 606 131 r c-play_sample-switch-\$1;
#X obj 95 504 r samplerate;
#X obj 822 193 r filesample-dur-\$1;
#X obj 33 479 s filesamplesize-\$1;
#X obj 80 526 /;
#X obj 80 550 s filesample-dur-\$1;
#X obj 108 236 tgl 15 0 c-play_sample-switch-\$1 c-play_sample-switch-\$1
empty 17 7 0 10 -262144 -1 -1 0 1;
#X obj 149 241 hsl 85 10 -1 1 0 0 c-play-vel-\$1 c-play-vel-\$1 rate_(-1:1)
-2 -5 0 8 -262144 -1 -1 0 1;
#X obj 682 259 r filesample-dur-\$1;
#X obj 463 452 snapshot~;
#X floatatom 463 473 5 0 0 0 - - -;
#X obj 463 410 metro 100;
#X obj 463 356 sel 1 0;
#X msg 482 384 stop;
#X obj 111 214 hsl 140 12 0 1 0 0 empty empty empty -2 -8 0 10 -262144
-1 -1 9078 1;
#X obj 908 554 line~;
#X floatatom 591 367 5 0 0 0 - - -;
#X msg 632 217 \$1;
#X msg 696 208 0;
#X obj 606 157 t f f f b f;
#X obj 907 524 pack f 30;
#X obj 670 583 *~;
#X obj 902 465 r c-play_sample-switch-\$1;
#X obj 669 614 outlet~;
#X obj 573 93 r c-play-vel-\$1;
#X symbolatom 164 125 14 0 0 0 filename: - -;
#X obj 102 7 loadbang;
#X obj 102 36 \$1;
#X obj 28 47 symbol;
#X obj 179 1 bng 15 250 50 0 empty empty empty 17 7 0 10 -262144 -1
-1;
#X obj 239 239 bng 12 250 50 0 empty empty empty 17 7 0 10 -262144
-1 -1;
#X msg 102 66 \; sampler-array-\$1 const 0 \;;
#X obj 163 314 s c-play-vel-\$1;
#X msg 187 282 1;
#X obj 131 239 bng 12 250 50 0 empty empty empty 17 7 0 10 -262144
-1 -1;
#X msg 150 283 -1;
#X obj 214 150 bng 10 250 50 0 empty empty norm. 12 5 0 10 -262144
-1 -1;
#X msg 279 202 \; sampler-array-\$1 normalize;
#X obj 279 172 \$1;
#X obj 154 418 bng 15 250 50 0 empty empty empty 17 7 0 10 -262144
-1 -1;
#X msg 180 433 0;
#X connect 1 0 2 0;
#X connect 1 1 64 0;
#X connect 2 0 28 0;
#X connect 2 0 29 0;
#X connect 5 0 50 0;
#X connect 5 0 8 0;
#X connect 6 0 5 0;
#X connect 7 0 1 0;
#X connect 8 0 7 0;
#X connect 10 0 34 0;
#X connect 10 0 13 0;
#X connect 11 0 23 0;
#X connect 12 0 13 1;
#X connect 13 0 11 0;
#X connect 15 0 17 1;
#X connect 16 0 15 1;
#X connect 17 0 18 0;
#X connect 18 0 12 0;
#X connect 19 0 21 1;
#X connect 20 0 19 0;
#X connect 21 0 10 0;
#X connect 21 0 41 0;
#X connect 22 0 21 0;
#X connect 23 0 46 0;
#X connect 24 0 17 0;
#X connect 24 1 15 0;
#X connect 25 0 44 0;
#X connect 26 0 29 1;
#X connect 27 0 24 0;
#X connect 29 0 30 0;
#X connect 33 0 20 0;
#X connect 34 0 35 0;
#X connect 34 0 39 0;
#X connect 36 0 34 0;
#X connect 37 0 36 0;
#X connect 37 1 38 0;
#X connect 38 0 36 0;
#X connect 40 0 46 1;
#X connect 42 0 21 0;
#X connect 43 0 10 1;
#X connect 44 0 22 1;
#X connect 44 1 42 0;
#X connect 44 2 37 0;
#X connect 44 3 43 0;
#X connect 45 0 40 0;
#X connect 46 0 48 0;
#X connect 47 0 45 0;
#X connect 49 0 22 0;
#X connect 51 0 52 0;
#X connect 51 0 53 0;
#X connect 52 0 56 0;
#X connect 53 0 50 0;
#X connect 54 0 52 0;
#X connect 55 0 58 0;
#X connect 58 0 57 0;
#X connect 59 0 60 0;
#X connect 60 0 57 0;
#X connect 61 0 63 0;
#X connect 63 0 62 0;
#X connect 64 0 65 0;
#X connect 65 0 22 1;
#X coords 0 -1 1 1 160 160 1 100 100;
